<svg width="531" height="119" xmlns="http://www.w3.org/2000/svg" xmlns:undefined="http://sodipodi.sourceforge.net/DTD/sodipodi-0.dtd" version="1.1">
 <defs id="defs6">
  <clipPath id="clipPath16" clipPathUnits="userSpaceOnUse">
   <path id="path14" d="m0,595.28l841.89,0l0,-595.28l-841.89,0l0,595.28z"/>
  </clipPath>
 </defs>
 <g>
  <title>Layer 1</title>
  <g id="svg_1">
   <g transform="matrix(1.33333 0 0 -1.33333 0 793.707)" id="g18">
    <path fill-rule="nonzero" fill="#4a8ecc" id="path20" d="m77.4118,532.23353l-17.927,0c-4.019,0 -7.469,1.431 -10.345,4.306c-2.875,2.876 -4.313,6.327 -4.313,10.346l0,16.646c0,4.019 1.438,7.47 4.313,10.345c2.876,2.876 6.326,4.307 10.345,4.307l17.927,0l0,-6.901l-17.927,0c-2.124,0 -3.95,-0.758 -5.469,-2.281c-1.524,-1.523 -2.289,-3.346 -2.289,-5.477l0,-16.632c0,-2.131 0.765,-3.954 2.289,-5.477c1.519,-1.523 3.345,-2.281 5.469,-2.281l17.927,0l0,-6.901z"/>
   </g>
   <g transform="matrix(1.33333 0 0 -1.33333 0 793.707)" id="g22">
    <path fill-rule="nonzero" fill="#4a8ecc" id="path24" d="m116.258,571.28233l-13.103,0c-2.124,0 -3.948,-0.758 -5.467,-2.281c-1.526,-1.529 -2.287,-3.352 -2.287,-5.477l0,-31.291l-6.902,0l0,31.298c0,4.02 1.434,7.47 4.31,10.345c2.882,2.876 6.326,4.307 10.346,4.307l13.103,0l0,-6.901z"/>
   </g>
   <g transform="matrix(1.33333 0 0 -1.33333 0 793.707)" id="g26">
    <path fill-rule="nonzero" fill="#4a8ecc" id="path28" d="m148.24819,546.89222l0,16.632c0,2.131 -0.744,3.954 -2.228,5.477c-1.497,1.523 -3.301,2.281 -5.418,2.281l-2.065,0c-2.121,0 -3.938,-0.758 -5.457,-2.281c-1.517,-1.523 -2.282,-3.346 -2.282,-5.477l0,-16.632c0,-2.131 0.765,-3.954 2.282,-5.477c1.519,-1.523 3.336,-2.281 5.457,-2.281l2.065,0c2.117,0 3.921,0.758 5.418,2.281c1.484,1.523 2.228,3.346 2.228,5.477m6.905,-0.007c0,-4.019 -1.422,-7.47 -4.265,-10.346c-2.836,-2.875 -6.267,-4.306 -10.286,-4.306l-2.065,0c-4.019,0 -7.464,1.431 -10.336,4.306c-2.866,2.876 -4.3,6.327 -4.3,10.346l0,16.646c0,4.02 1.434,7.47 4.3,10.345c2.872,2.876 6.317,4.308 10.336,4.308l2.065,0c4.019,0 7.45,-1.432 10.286,-4.308c2.843,-2.875 4.265,-6.325 4.265,-10.345l0,-16.646z"/>
   </g>
   <g transform="matrix(1.33333 0 0 -1.33333 0 793.707)" id="g30">
    <path fill-rule="nonzero" fill="#4a8ecc" id="path32" d="m239.8029,546.88545c0,-4.019 -1.418,-7.47 -4.261,-10.346c-2.843,-2.875 -6.274,-4.306 -10.287,-4.306l-2.065,0c-4.019,0 -7.463,1.431 -10.332,4.306c-2.873,2.876 -4.307,6.327 -4.307,10.346l0,31.298l6.901,0l0,-31.291c0,-2.124 0.758,-3.954 2.281,-5.477c1.513,-1.523 3.34,-2.281 5.457,-2.281l2.059,0c2.124,0 3.928,0.758 5.417,2.281c1.491,1.523 2.236,3.353 2.236,5.477l0,31.291l6.901,0l0,-31.298z"/>
   </g>
   <g transform="matrix(1.33333 0 0 -1.33333 0 793.707)" id="g34">
    <path fill-rule="nonzero" fill="#4a8ecc" id="path36" d="m278.68821,532.23353l-13.1,0c-4.023,0 -7.466,1.431 -10.342,4.306c-2.879,2.876 -4.313,6.32 -4.313,10.346l0,42.748l6.904,0l0,-11.45l20.851,0l0,-6.901l-20.851,0l0,-24.39c0,-2.131 0.755,-3.954 2.281,-5.477c1.523,-1.523 3.346,-2.281 5.47,-2.281l13.1,0l0,-6.901z"/>
   </g>
   <g transform="matrix(1.33333 0 0 -1.33333 0 793.707)" id="g38">
    <path fill-rule="nonzero" fill="#4a8ecc" id="path40" d="m319.30589,546.88545c0,-4.019 -1.418,-7.47 -4.261,-10.346c-2.839,-2.875 -6.27,-4.306 -10.287,-4.306l-2.065,0c-4.019,0 -7.464,1.431 -10.335,4.306c-2.873,2.876 -4.304,6.327 -4.304,10.346l0,31.298l6.901,0l0,-31.291c0,-2.124 0.762,-3.954 2.274,-5.477c1.524,-1.523 3.34,-2.281 5.464,-2.281l2.065,0c2.117,0 3.921,0.758 5.412,2.281c1.49,1.523 2.235,3.353 2.235,5.477l0,31.291l6.901,0l0,-31.298z"/>
   </g>
   <g transform="matrix(1.33333 0 0 -1.33333 0 793.707)" id="g42">
    <path fill-rule="nonzero" fill="#4a8ecc" id="path44" d="m358.19111,571.28233l-13.1,0c-2.124,0 -3.947,-0.758 -5.466,-2.281c-1.527,-1.529 -2.288,-3.352 -2.288,-5.477l0,-31.291l-6.905,0l0,31.298c0,4.02 1.438,7.47 4.314,10.345c2.876,2.876 6.322,4.307 10.345,4.307l13.1,0l0,-6.901z"/>
   </g>
   <g transform="matrix(1.33333 0 0 -1.33333 0 793.707)" id="g46">
    <path fill-rule="nonzero" fill="#4a8ecc" id="path48" d="m391.47331,563.52454c0,2.131 -0.758,3.954 -2.278,5.477c-1.516,1.523 -3.34,2.281 -5.457,2.281l-3.267,0c-2.119,0 -3.942,-0.758 -5.461,-2.281c-1.516,-1.523 -2.278,-3.346 -2.278,-5.477l0,-7.672l11.006,0c2.117,0 3.941,0.751 5.457,2.241c1.52,1.496 2.278,3.307 2.278,5.431m6.901,0c0,-4.019 -1.431,-7.457 -4.297,-10.306c-2.869,-2.849 -6.313,-4.268 -10.329,-4.268l-11.016,0l0,-2.065c0,-2.124 0.765,-3.947 2.288,-5.47c1.523,-1.523 3.346,-2.281 5.47,-2.281l13.1,0l0,-6.901l-13.1,0c-4.022,0 -7.471,1.431 -10.346,4.306c-2.875,2.876 -4.313,6.327 -4.313,10.346l0,16.646c0,4.019 1.438,7.47 4.307,10.345c2.869,2.876 6.31,4.307 10.333,4.307l3.267,0c4.016,0 7.464,-1.438 10.333,-4.307c2.868,-2.875 4.303,-6.326 4.303,-10.352"/>
   </g>
   <g transform="matrix(1.33333 0 0 -1.33333 0 793.707)" id="g50">
    <path fill-rule="nonzero" fill="#8ec31f" id="path52" d="m181.81761,588.37904c-2.121,0 -3.944,-0.765 -5.46,-2.281c-1.523,-1.516 -2.288,-3.346 -2.288,-5.464l0,-13.077l24.352,0l0,-7.346l-24.352,0l0,-27.834l-6.901,0l0,48.251c0,4.019 1.438,7.47 4.307,10.339c2.872,2.876 6.319,4.313 10.339,4.313l18.822,0l0,-6.954l-18.819,0.053z"/>
   </g>
   <g transform="matrix(1.33333 0 0 -1.33333 0 793.707)" id="g54">
    <path fill-rule="nonzero" fill="#4a8ecc" id="path56" d="m25.697,540.76875l0,15.43l-11.035,0c-2.128,0 -3.951,-0.745 -5.473,-2.242c-1.523,-1.49 -2.288,-3.306 -2.288,-5.43c0,-2.124 0.765,-3.947 2.288,-5.471c1.522,-1.522 3.345,-2.287 5.473,-2.287l11.035,0zm6.901,-6.901l-17.936,0c-4.023,0 -7.473,1.437 -10.349,4.313c-2.875,2.875 -4.313,6.32 -4.313,10.346c0,4.025 1.438,7.463 4.313,10.305c2.876,2.844 6.326,4.268 10.349,4.268l11.035,0l0,2.066c0,2.13 -0.758,3.947 -2.281,5.47c-1.523,1.522 -3.346,2.287 -5.473,2.287l-13.1,0l0,6.902l13.1,0c4.022,0 7.469,-1.438 10.345,-4.314c2.872,-2.875 4.31,-6.32 4.31,-10.345l0,-31.298z"/>
   </g>
   <g transform="matrix(1.33333 0 0 -1.33333 0 793.707)" id="g58">
    <path fill-rule="nonzero" fill="#231916" id="path60" d="m167.4694,523.30622l2.924,0l2.827,-11.176l0.036,0l2.827,11.176l2.921,0l0,-14.098l-1.739,0l0,12.321l-0.039,0l-3.12,-12.321l-1.736,0l-3.123,12.321l-0.04,0l0,-12.321l-1.738,0l0,14.098z"/>
   </g>
   <g transform="matrix(1.33333 0 0 -1.33333 0 793.707)" id="g62">
    <path fill-rule="nonzero" fill="#231916" id="path64" d="m189.21259,514.50254c0,2.294 -0.333,4.262 -2.111,4.262c-1.68,0 -2.035,-1.968 -2.035,-4.262c0,-2.294 0.335,-4.268 2.035,-4.268c1.758,0 2.111,1.974 2.111,4.268m-2.072,5.568c3.062,0 3.813,-2.588 3.813,-5.568c0,-2.98 -0.768,-5.568 -3.813,-5.568c-3.061,0 -3.81,2.588 -3.81,5.568c0,2.98 0.771,5.568 3.81,5.568"/>
   </g>
   <g transform="matrix(1.33333 0 0 -1.33333 0 793.707)" id="g66">
    <path fill-rule="nonzero" fill="#231916" id="path68" d="m198.87129,510.35264c1.543,0 1.938,1.739 1.938,4.15c0,2.53 -0.395,4.15 -1.938,4.15c-1.777,0 -2.13,-2.098 -2.13,-4.15c0,-2.17 0.353,-4.15 2.13,-4.15m-3.692,12.954l1.66,0l0,-4.713l0.039,0c0.376,0.902 1.382,1.477 2.451,1.477c2.863,0 3.218,-3.36 3.218,-5.568c0,-2.98 -1.009,-5.568 -3.454,-5.568c-1.15,0 -2.077,0.791 -2.293,1.582l-0.039,0l0,-1.308l-1.582,0l0,14.098z"/>
   </g>
   <path fill-rule="nonzero" fill="#231916" id="path70" d="m275.98892,100.64493l2.20933,0l0,14.11733l-2.20933,0l0,-14.11733zm0,-4.68l2.20933,0l0,2.528l-2.20933,0l0,-2.528z"/>
   <path fill-rule="nonzero" fill="#231916" id="path72" d="m284.78092,95.96493l2.21333,0l0,18.79733l-2.21333,0l0,-18.79733z"/>
   <g transform="matrix(1.33333 0 0 -1.33333 0 793.707)" id="g74">
    <path fill-rule="nonzero" fill="#231916" id="path76" d="m225.30149,515.60703l0,0.575c0,1.183 -0.379,2.582 -1.837,2.582c-1.741,0 -1.937,-2.124 -1.937,-2.759l0,-0.398l3.774,0zm-3.833,-1.3c0,-1.621 0,-4.072 2.035,-4.072c1.576,0 1.798,1.66 1.798,2.451l1.656,0c0,-1.124 -0.669,-3.751 -3.554,-3.751c-2.586,0 -3.674,1.797 -3.674,5.431c0,2.646 0.513,5.704 3.774,5.704c3.235,0 3.532,-2.822 3.532,-5.09l0,-0.673l-5.567,0z"/>
   </g>
   <g transform="matrix(1.33333 0 0 -1.33333 0 793.707)" id="g78">
    <path fill-rule="nonzero" fill="#231916" id="path80" d="m238.78629,523.30622l7.291,0l0,-1.536l-5.552,0l0,-4.424l5.232,0l0,-1.537l-5.232,0l0,-6.601l-1.739,0l0,14.098z"/>
   </g>
   <g transform="matrix(1.33333 0 0 -1.33333 0 793.707)" id="g82">
    <path fill-rule="nonzero" fill="#231916" id="path84" d="m257.03681,509.20863l-1.578,0l0,1.242l-0.043,0c-0.431,-0.967 -1.539,-1.516 -2.568,-1.516c-2.785,0 -2.785,2.111 -2.785,3.359l0,7.503l1.661,0l0,-7.306c0,-0.812 0.059,-2.138 1.562,-2.138c0.889,0 2.091,0.595 2.091,2.138l0,7.306l1.66,0l0,-10.588z"/>
   </g>
   <g transform="matrix(1.33333 0 0 -1.33333 0 793.707)" id="g86">
    <path fill-rule="nonzero" fill="#231916" id="path88" d="m262.27171,522.87464l1.657,0l0,-3.078l1.84,0l0,-1.308l-1.84,0l0,-6.789c0,-0.85 0.219,-1.183 1.088,-1.183c0.353,0 0.555,0.039 0.732,0.058l0,-1.366c-0.219,-0.039 -0.654,-0.118 -1.347,-0.118c-1.718,0 -2.13,0.713 -2.13,2.092l0,7.306l-1.542,0l0,1.308l1.542,0l0,3.078z"/>
   </g>
   <g transform="matrix(1.33333 0 0 -1.33333 0 793.707)" id="g90">
    <path fill-rule="nonzero" fill="#231916" id="path92" d="m276.4304,509.20863l-1.578,0l0,1.242l-0.039,0c-0.439,-0.967 -1.543,-1.516 -2.569,-1.516c-2.784,0 -2.784,2.111 -2.784,3.359l0,7.503l1.66,0l0,-7.306c0,-0.812 0.059,-2.138 1.559,-2.138c0.889,0 2.094,0.595 2.094,2.138l0,7.306l1.657,0l0,-10.588z"/>
   </g>
   <g transform="matrix(1.33333 0 0 -1.33333 0 793.707)" id="g94">
    <path fill-rule="nonzero" fill="#231916" id="path96" d="m281.1721,519.79655l1.66,0l0,-1.582l0.039,0c0.474,1.007 1.104,1.856 2.287,1.856c0.341,0 0.576,-0.039 0.733,-0.117l0,-1.621c-0.157,0.02 -0.353,0.086 -0.889,0.086c-0.83,0 -2.17,-0.752 -2.17,-2.511l0,-6.699l-1.66,0l0,10.588z"/>
   </g>
   <g transform="matrix(1.33333 0 0 -1.33333 0 793.707)" id="g98">
    <path fill-rule="nonzero" fill="#231916" id="path100" d="m294.7985,515.60703l0,0.575c0,1.183 -0.373,2.582 -1.833,2.582c-1.742,0 -1.938,-2.124 -1.938,-2.759l0,-0.398l3.771,0zm-3.83,-1.3c0,-1.621 0,-4.072 2.033,-4.072c1.582,0 1.797,1.66 1.797,2.451l1.66,0c0,-1.124 -0.673,-3.751 -3.555,-3.751c-2.589,0 -3.674,1.797 -3.674,5.431c0,2.646 0.516,5.704 3.772,5.704c3.241,0 3.535,-2.822 3.535,-5.09l0,-0.673l-5.568,0z"/>
   </g>
   <path fill-rule="nonzero" fill="#231916" id="path102" d="m411.10225,100.64493l2.212,0l0,14.11733l-2.212,0l0,-14.11733zm0,-4.68l2.212,0l0,2.528l-2.212,0l0,-2.528z"/>
   <g transform="matrix(1.33333 0 0 -1.33333 0 793.707)" id="g104">
    <path fill-rule="nonzero" fill="#231916" id="path106" d="m314.82591,519.79655l1.582,0l0,-1.249l0.036,0c0.437,0.968 1.542,1.523 2.568,1.523c2.788,0 2.788,-2.11 2.788,-3.359l0,-7.503l-1.661,0l0,7.307c0,0.811 -0.059,2.137 -1.559,2.137c-0.892,0 -2.097,-0.595 -2.097,-2.137l0,-7.307l-1.657,0l0,10.588z"/>
   </g>
   <g transform="matrix(1.33333 0 0 -1.33333 0 793.707)" id="g108">
    <path fill-rule="nonzero" fill="#231916" id="path110" d="m335.64469,516.91422l1.718,0c1.027,0 2.903,0 2.903,2.719c0,1.385 -0.929,2.255 -2.55,2.255l-2.071,0l0,-4.974zm-1.739,6.392l4.562,0c2.209,0 3.614,-1.301 3.614,-3.53c0,-1.542 -0.536,-3.163 -2.176,-3.555l0,-0.039c1.228,-0.137 1.918,-1.15 2,-2.353l0.117,-2.404c0.079,-1.563 0.334,-1.962 0.752,-2.217l-2.098,0c-0.294,0.295 -0.432,1.347 -0.47,2.04l-0.122,2.189c-0.14,1.935 -1.202,2.052 -2.094,2.052l-2.346,0l0,-6.281l-1.739,0l0,14.098z"/>
   </g>
   <g transform="matrix(1.33333 0 0 -1.33333 0 793.707)" id="g112">
    <path fill-rule="nonzero" fill="#231916" id="path114" d="m351.87809,515.60703l0,0.575c0,1.183 -0.376,2.582 -1.836,2.582c-1.739,0 -1.938,-2.124 -1.938,-2.759l0,-0.398l3.774,0zm-3.83,-1.3c0,-1.621 0,-4.072 2.033,-4.072c1.582,0 1.797,1.66 1.797,2.451l1.66,0c0,-1.124 -0.673,-3.751 -3.555,-3.751c-2.588,0 -3.676,1.797 -3.676,5.431c0,2.646 0.513,5.704 3.774,5.704c3.238,0 3.532,-2.822 3.532,-5.09l0,-0.673l-5.565,0z"/>
   </g>
   <g transform="matrix(1.33333 0 0 -1.33333 0 793.707)" id="g116">
    <path fill-rule="nonzero" fill="#231916" id="path118" d="m362.85761,514.98014c-0.614,-0.654 -2.072,-0.791 -2.823,-1.249c-0.536,-0.333 -0.81,-0.751 -0.81,-1.679c0,-1.066 0.372,-1.817 1.5,-1.817c1.085,0 2.133,0.929 2.133,2.014l0,2.731zm-5.113,1.614c0,2.412 1.026,3.476 3.551,3.476c3.222,0 3.222,-1.934 3.222,-3.038l0,-5.908c0,-0.432 0,-0.849 0.51,-0.849c0.222,0 0.32,0.038 0.398,0.098l0,-1.184c-0.117,-0.02 -0.555,-0.098 -0.967,-0.098c-0.634,0 -1.424,0 -1.503,1.359l-0.039,0c-0.532,-0.947 -1.562,-1.515 -2.549,-1.515c-1.973,0 -2.882,1.183 -2.882,3.078c0,1.483 0.634,2.509 1.993,2.927l2.236,0.667c1.202,0.379 1.202,0.712 1.202,1.601c0,0.987 -0.591,1.556 -1.699,1.556c-1.817,0 -1.817,-1.693 -1.817,-2.073l0,-0.097l-1.656,0z"/>
   </g>
   <path fill-rule="nonzero" fill="#231916" id="path120" d="m492.58091,95.96493l2.20933,0l0,18.79733l-2.20933,0l0,-18.79733z"/>
   <path fill-rule="nonzero" fill="#231916" id="path122" d="m501.37424,100.64493l2.212,0l0,14.11733l-2.212,0l0,-14.11733zm0,-4.68l2.212,0l0,2.528l-2.212,0l0,-2.528z"/>
   <g transform="matrix(1.33333 0 0 -1.33333 0 793.707)" id="g124">
    <path fill-rule="nonzero" fill="#231916" id="path126" d="m383.02271,522.87464l1.66,0l0,-3.078l1.834,0l0,-1.308l-1.834,0l0,-6.789c0,-0.85 0.215,-1.183 1.085,-1.183c0.357,0 0.552,0.039 0.732,0.058l0,-1.366c-0.219,-0.039 -0.653,-0.118 -1.343,-0.118c-1.719,0 -2.134,0.713 -2.134,2.092l0,7.306l-1.539,0l0,1.308l1.539,0l0,3.078z"/>
   </g>
   <g transform="matrix(1.33333 0 0 -1.33333 0 793.707)" id="g128">
    <path fill-rule="nonzero" fill="#231916" id="path130" d="m389.3195,519.79655l1.82,0l2.095,-8.496l0.039,0l1.857,8.496l1.816,0l-3.065,-11.299c-0.393,-1.459 -0.827,-2.765 -2.82,-2.765c-0.654,0 -0.932,0.039 -1.206,0.059l0,1.306c0.239,-0.038 0.552,-0.059 0.967,-0.059c0.771,0 1.104,0.451 1.304,1.027l0.318,0.928l-3.125,10.803z"/>
   </g>
  </g>
 </g>
</svg>